<?xml version="1.0" encoding="UTF-8" standalone="no"?>
<svg width="24px" height="32px" viewBox="0 0 24 32" version="1.1" xmlns="http://www.w3.org/2000/svg" xmlns:xlink="http://www.w3.org/1999/xlink" xmlns:sketch="http://www.bohemiancoding.com/sketch/ns">
    <!-- Generator: Sketch 3.3.2 (12043) - http://www.bohemiancoding.com/sketch -->
    <title>file_document_code_programming_css_stylesheet</title>
    <desc>Created with Sketch.</desc>
    <defs></defs>
    <g id="Page-1" stroke="none" stroke-width="1" fill="none" fill-rule="evenodd" sketch:type="MSPage">
        <path d="M0,1 C0,0 0.99339768,0 0.99339768,0 L17,0 L24,7 L24,30.9993054 C24,32 22.9967004,32 22.9967004,32 L1.00329963,32 C0,32 0,31 0,31 L0,1 L0,1 Z M2,30 L22,29.9993054 L22,8 L17,8 C16,8 16,7 16,7 L16,2 L2,2 L2,30 L2,30 Z M4.75,15.8397636 C4.75,16.121374 4.74942517,16.248004 4.74662079,16.4034511 C4.73082126,17.2792193 4.62903082,17.7942174 4.44642918,17.9939769 L3.96665103,18.5188368 L4.46523926,19.0258621 C4.63495303,19.1984478 4.73459883,19.7169663 4.74757979,20.6229475 C4.74958949,20.7632101 4.75,20.8772033 4.75,21.1313457 C4.75,23.2149836 4.84765127,23.75 6,23.75 C6.4142136,23.75 6.7499999,23.4142136 6.75,23 C6.7500001,22.5218506 6.3148229,22.3847224 6.3003111,22.3052143 C6.2595308,22.0817852 6.25,21.8110041 6.25,21.1313457 C6.25,20.870059 6.2495722,20.7512556 6.2474258,20.6014575 C6.2288039,19.3017746 6.1432811,19.0258622 5.89307178,18.5067708 C6.143281,17.9970274 6.2299824,17.3392481 6.2463767,16.4305078 C6.2493976,16.2630598 6.25,16.130364 6.25,15.8397636 C6.25,15.1695782 6.2594945,14.9036697 6.2998821,14.6862814 C6.3137852,14.6114471 6.7499998,14.5065308 6.75,14 C6.7500001,13.5857864 6.4142136,13.25 6,13.25 C4.84954984,13.25 4.75,13.7858315 4.75,15.8397636 L4.75,15.8397636 Z M19.2000122,15.8397636 C19.2000122,16.121374 19.200587,16.248004 19.2033914,16.4034511 C19.2191909,17.2792193 19.3209814,17.7942174 19.503583,17.9939769 L19.9833612,18.5188368 L19.4847729,19.0258621 C19.3150592,19.1984478 19.2154134,19.7169663 19.2024324,20.6229475 C19.2004227,20.7632101 19.2000122,20.8772033 19.2000122,21.1313457 C19.2000122,23.2149836 19.1023609,23.75 17.9500122,23.75 C17.5357986,23.75 17.2000123,23.4142136 17.2000122,23 C17.2000121,22.5218506 17.6351893,22.3847224 17.6497011,22.3052143 C17.6904814,22.0817852 17.7000122,21.8110041 17.7000122,21.1313457 C17.7000122,20.870059 17.70044,20.7512556 17.7025864,20.6014575 C17.7212083,19.3017746 17.8067312,19.0258622 18.0569404,18.5067708 C17.8067313,17.9970274 17.7200298,17.3392481 17.7036355,16.4305078 C17.7006146,16.2630598 17.7000122,16.130364 17.7000122,15.8397636 C17.7000122,15.1695782 17.6905177,14.9036697 17.6501301,14.6862814 C17.636227,14.6114471 17.2000124,14.5065308 17.2000122,14 C17.2000121,13.5857864 17.5357986,13.25 17.9500122,13.25 C19.1004624,13.25 19.2000122,13.7858315 19.2000122,15.8397636 L19.2000122,15.8397636 Z M12,23 C12.5522847,23 13,22.5522847 13,22 C13,21.4477153 12.5522847,21 12,21 C11.4477153,21 11,21.4477153 11,22 C11,22.5522847 11.4477153,23 12,23 L12,23 Z M9,23 C9.5522847,23 10,22.5522847 10,22 C10,21.4477153 9.5522847,21 9,21 C8.4477153,21 8,21.4477153 8,22 C8,22.5522847 8.4477153,23 9,23 L9,23 Z M15,23 C15.5522847,23 16,22.5522847 16,22 C16,21.4477153 15.5522847,21 15,21 C14.4477153,21 14,21.4477153 14,22 C14,22.5522847 14.4477153,23 15,23 L15,23 Z" id="file_document_code_programming_css_stylesheet" fill="#000000" sketch:type="MSShapeGroup"></path>
    </g>
</svg>