<?xml version="1.0" encoding="utf-8"?>
<!-- Generator: Adobe Illustrator 17.1.0, SVG Export Plug-In . SVG Version: 6.00 Build 0)  -->
<!DOCTYPE svg PUBLIC "-//W3C//DTD SVG 1.1//EN" "http://www.w3.org/Graphics/SVG/1.1/DTD/svg11.dtd">
<svg version="1.1" id="Layer_1" xmlns="http://www.w3.org/2000/svg" xmlns:xlink="http://www.w3.org/1999/xlink" x="0px" y="0px"
	 viewBox="0 0 100 75.4" enable-background="new 0 0 100 75.4" xml:space="preserve">
<path id="_x3C_Path_x3E_" fill="#010101" d="M96.7,75.4c-9,0-7.1-9-23-9c-15.9,0-20.3,9-23.8,9s-7.9-9-23.8-9c-15.9,0-13.9,9-23,9
	c-1.7,0-3.3-1.2-3.3-3.2V12.8C0,12.8,9.7,0,26.2,0c16.5,0,23.9,9.1,23.9,9.1S57.1,0,73.8,0C94.3,0,100,13.1,100,13.1v59
	C100,74.2,98.6,75.4,96.7,75.4z M95.1,14.8c0,0-4.9-9.8-21.3-9.8c-17.1,0-19.9,9.7-23.6,9.7c-3.7,0-6.1-9.7-23.9-9.7
	c-13.6,0-21.3,9.8-21.3,9.8v54.1c0,1,0.6,1.6,1.6,1.6c0,0,4.5-9,19.7-9c16.6,0,23.9,8.8,23.9,8.8s7.1-8.8,23.6-8.8
	c14.9,0,19.7,9,19.7,9c1,0,1.6-0.6,1.6-1.6L95.1,14.8L95.1,14.8z"/>
<rect x="48.3" y="19.3" fill="#010101" width="3.3" height="38.5"/>
</svg>
