<?xml version="1.0" encoding="UTF-8" standalone="no"?>
<svg width="24px" height="32px" viewBox="0 0 24 32" version="1.1" xmlns="http://www.w3.org/2000/svg" xmlns:xlink="http://www.w3.org/1999/xlink" xmlns:sketch="http://www.bohemiancoding.com/sketch/ns">
    <!-- Generator: Sketch 3.3.2 (12043) - http://www.bohemiancoding.com/sketch -->
    <title>file_document_settings_configure_setup</title>
    <desc>Created with Sketch.</desc>
    <defs></defs>
    <g id="Page-1" stroke="none" stroke-width="1" fill="none" fill-rule="evenodd" sketch:type="MSPage">
        <g id="noun_140511_cc" sketch:type="MSLayerGroup" transform="translate(-4.000000, 0.000000)" fill="#000000">
            <g id="file-folder" transform="translate(4.000000, 0.000000)" sketch:type="MSShapeGroup">
                <path d="M0,1 C0,0 0.99339768,0 0.99339768,0 L17,0 L24,7 L24,30.9993054 C24,32 22.9967004,32 22.9967004,32 L1.00329963,32 C0,32 0,31 0,31 L0,1 L0,1 Z M2,30 L22,29.9993054 L22,8 L17,8 C16,8 16,7 16,7 L16,2 L2,2 L2,30 L2,30 Z M10.6614782,15.7685226 L10.9174352,14.495389 C10.9630345,14.2217932 11.214035,14 11.5046844,14 L12.4953156,14 C12.7740451,14 13.0359588,14.2157526 13.0825648,14.495389 L13.3385218,15.7685226 L14.4197521,15.0492701 C14.6454571,14.8880522 14.9797727,14.9087049 15.1852929,15.1142251 L15.8857749,15.8147071 C16.0828664,16.0117986 16.1155072,16.3495597 15.9507299,16.5802479 L15.2314774,17.6614782 L16.504611,17.9174352 C16.7782068,17.9630345 17,18.214035 17,18.5046844 L17,19.4953156 C17,19.7740451 16.7842474,20.0359588 16.504611,20.0825648 L15.2314774,20.3385218 L15.9507299,21.4197521 C16.1119478,21.6454571 16.0912951,21.9797727 15.8857749,22.1852929 L15.1852929,22.8857749 C14.9882014,23.0828664 14.6504403,23.1155072 14.4197521,22.9507299 L13.3385218,22.2314774 L13.0825648,23.504611 C13.0369655,23.7782068 12.785965,24 12.4953156,24 L11.5046844,24 C11.2259549,24 10.9640412,23.7842474 10.9174352,23.504611 L10.6614782,22.2314774 L9.5802479,22.9507299 C9.3545429,23.1119478 9.0202273,23.0912951 8.8147071,22.8857749 L8.1142251,22.1852929 C7.9171336,21.9882014 7.8844928,21.6504403 8.0492701,21.4197521 L8.7685226,20.3385218 L7.495389,20.0825648 C7.2217932,20.0369655 7,19.785965 7,19.4953156 L7,18.5046844 C7,18.2259549 7.2157526,17.9640412 7.495389,17.9174352 L8.7685226,17.6614782 L8.0492701,16.5802479 C7.8880522,16.3545429 7.9087049,16.0202273 8.1142251,15.8147071 L8.8147071,15.1142251 C9.0117986,14.9171336 9.3495597,14.8844928 9.5802479,15.0492701 L10.6614782,15.7685226 L10.6614782,15.7685226 Z M12,21.5 C13.3807119,21.5 14.5,20.3807119 14.5,19 C14.5,17.6192881 13.3807119,16.5 12,16.5 C10.6192881,16.5 9.5,17.6192881 9.5,19 C9.5,20.3807119 10.6192881,21.5 12,21.5 L12,21.5 Z" id="file_document_settings_configure_setup"></path>
            </g>
        </g>
    </g>
</svg>