<?xml version="1.0" encoding="utf-8"?>
<!-- Generator: Adobe Illustrator 17.1.0, SVG Export Plug-In . SVG Version: 6.00 Build 0)  -->
<!DOCTYPE svg PUBLIC "-//W3C//DTD SVG 1.1//EN" "http://www.w3.org/Graphics/SVG/1.1/DTD/svg11.dtd">
<svg version="1.1" id="Layer_1" xmlns="http://www.w3.org/2000/svg" xmlns:xlink="http://www.w3.org/1999/xlink" x="0px" y="0px"
	 viewBox="-5.1 -5 187.2 199.3" enable-background="new -5.1 -5 187.2 199.3" xml:space="preserve">
<g id="Layer_x0020_1">
	<circle fill="#FFFFFF" cx="90.6" cy="172.4" r="10.5"/>
	<g id="_950653732912">
		<path stroke="#000000" stroke-width="10" stroke-miterlimit="10" d="M176.3,88.3c-0.2-24-10-45.9-25.8-61.7
			c-15.8-16-37.7-25.8-62.1-25.8c-24.2,0-46.1,9.8-61.9,25.8C10.9,42.2,1.1,63.7,0.7,87.4c3.2,16.4,20.1,28.1,42.5,34.7
			c11.6,3.4,24.6,5.3,37.9,5.9c13.2,0.5,26.7-0.4,39.1-2.7c27.4-5,50.2-17.3,55.9-37H176.3z M124.8,176.2c0-0.5,0-0.9,0.2-1.4
			c0.2-0.2,0.5-0.2,0.7-0.4c0,0.5,0,1.2,0,1.8c0,2.8,1.1,5.3,2.8,7.3c2,1.8,4.4,2.8,7.3,2.8c2.7,0,5.3-1.1,7.1-2.8
			c1.8-2,3-4.4,3-7.3c0-2.7-1.2-5.3-3-7.1c-0.9-0.9-2.1-1.8-3.4-2.1c0.4-0.2,0.5-0.4,0.7-0.5c1.2,0.5,2.3,1.2,3.2,2.1
			c2,2,3.2,4.6,3.2,7.7c0,3-1.2,5.7-3.2,7.8c-2,2-4.8,3.2-7.7,3.2c-3,0-5.9-1.2-7.8-3.2C126,181.9,124.8,179.3,124.8,176.2z
			 M81.5,182.7c0.4,1.1,1.1,2.1,2,2.8c1.8,1.8,4.3,3,7.1,3c2.8,0,5.3-1.2,7.1-3c0.9-0.9,1.8-2,2.3-3.2c0.2,0,0.5-0.2,0.7-0.2
			c-0.5,1.6-1.4,2.8-2.5,3.9c-2,2-4.6,3.2-7.7,3.2c-3,0-5.7-1.2-7.7-3.2c-1.1-0.9-1.8-2.1-2.3-3.4C80.8,182.7,81.1,182.7,81.5,182.7
			z M52.4,177.2c0-0.5,0-1.2,0-1.8c0.2,0.2,0.5,0.2,0.7,0.4c0,0.5,0.2,1.1,0.2,1.4c0,3-1.2,5.9-3.2,7.8s-4.8,3.2-7.8,3.2
			c-2.8,0-5.7-1.2-7.7-3.2c-2-2-3.2-4.8-3.2-7.8c0-3,1.2-5.7,3.2-7.7c0.9-0.9,2-1.6,3-2.1c0.4,0.2,0.5,0.4,0.9,0.5
			c-1.2,0.5-2.5,1.2-3.4,2.1c-1.8,1.8-3,4.4-3,7.1c0,2.8,1.2,5.3,3,7.3c1.8,1.8,4.4,2.8,7.1,2.8c2.8,0,5.3-1.1,7.3-2.8
			C51.3,182.6,52.4,180.1,52.4,177.2z M0.7,90.6c0.5,23.5,10.3,44.7,25.8,60c15.8,16,37.7,25.8,61.9,25.8c24.4,0,46.3-9.8,62.1-25.8
			c15.5-15.5,25.3-36.7,25.8-60c-6.8,18.9-29.2,30.6-55.9,35.4c-12.6,2.5-26.2,3.2-39.5,2.7c-13.2-0.5-26.3-2.5-37.9-5.9
			C21.9,116.5,5.3,105.7,0.7,90.6z M151.1,26c16,16,26,38.1,26,62.5c0,24.6-10,46.6-26,62.6s-38.1,26-62.6,26
			c-24.4,0-46.4-10-62.5-26S0,113,0,88.4C0,64.1,10,42,26,26S64.1,0,88.4,0C113,0,135,10,151.1,26z"/>
		<path fill="#2B2A29" d="M88.4,6.1c3.4,0,6.2,0.5,8.4,1.4c2.1,1.1,3.6,2.5,3.6,4.1s-1.4,3.2-3.6,4.1c-2.1,1.1-5,1.6-8.4,1.6
			c-3.2,0-6-0.5-8.2-1.6c-2.1-0.9-3.6-2.5-3.6-4.1s1.4-3,3.6-4.1C82.4,6.6,85.2,6.1,88.4,6.1z M96.4,8.2c-2-0.9-4.8-1.4-8-1.4
			c-3,0-5.9,0.5-7.8,1.4s-3.2,2.1-3.2,3.4c0,1.4,1.2,2.5,3.2,3.4c2,1.1,4.8,1.6,7.8,1.6c3.2,0,6-0.5,8-1.6c2-0.9,3.2-2,3.2-3.4
			C99.6,10.3,98.4,9.1,96.4,8.2z"/>
	</g>
</g>
</svg>
