<?xml version="1.0" encoding="UTF-8" standalone="no"?>
<svg width="32px" height="28px" viewBox="0 0 32 28" version="1.1" xmlns="http://www.w3.org/2000/svg" xmlns:xlink="http://www.w3.org/1999/xlink" xmlns:sketch="http://www.bohemiancoding.com/sketch/ns">
    <!-- Generator: Sketch 3.3.2 (12043) - http://www.bohemiancoding.com/sketch -->
    <title>folder_new_empty_add_plus_group_collection</title>
    <desc>Created with Sketch.</desc>
    <defs></defs>
    <g id="Page-1" stroke="none" stroke-width="1" fill="none" fill-rule="evenodd" sketch:type="MSPage">
        <path d="M27,28 C29.7614237,28 32,25.7614237 32,23 C32,20.2385763 29.7614237,18 27,18 C24.2385763,18 22,20.2385763 22,23 C22,25.7614237 24.2385763,28 27,28 L27,28 Z M28,20 L26,20 L26,22 L24,22 L24,24 L26,24 L26,26 L28,26 L28,24 L30,24 L30,22 L28,22 L28,20 L28,20 Z M32,8 L0,8 L0,25 C0,26 1.00069463,26 1.00069463,26 L21.8026932,26 C21.2921829,25.1174799 21,24.0928614 21,23 C21,19.6862915 23.6862915,17 27,17 C29.0869708,17 30.9250785,18.0655093 32,19.6822049 L32,8 L32,8 Z M1.00069463,0 L9.5,0 C10.5574951,0 11,1 11,1 L12,3 L30.9993054,3 C30.9993054,3 32,3 32,4 L32,7 L0,7 L0,1 C-1.99840144e-15,0 1.00069463,0 1.00069463,0 L1.00069463,0 Z" id="folder_new_empty_add_plus_group_collection" fill="#000000" sketch:type="MSShapeGroup"></path>
    </g>
</svg>