<?xml version="1.0" encoding="utf-8"?>
<!-- Generator: Adobe Illustrator 16.0.0, SVG Export Plug-In . SVG Version: 6.00 Build 0)  -->
<!DOCTYPE svg PUBLIC "-//W3C//DTD SVG 1.1//EN" "http://www.w3.org/Graphics/SVG/1.1/DTD/svg11.dtd">
<svg version="1.1" id="Layer_1" xmlns="http://www.w3.org/2000/svg" xmlns:xlink="http://www.w3.org/1999/xlink" x="0px" y="0px"
	 width="160.75px" height="160px" viewBox="0 0 160.75 160" enable-background="new 0 0 160.75 160" xml:space="preserve">
<g>
	<g>
		<rect x="71.004" y="146.086" fill="#FFFFFF" width="8.492" height="8.494"/>
		
			<rect x="71.004" y="146.086" fill="none" stroke="#000000" stroke-width="2.126" stroke-miterlimit="10" width="8.492" height="8.494"/>
	</g>
	<g>
		
			<rect x="50.232" y="141.336" transform="matrix(0.9511 0.3089 -0.3089 0.9511 47.6328 -9.7084)" fill="#FFFFFF" width="8.492" height="8.494"/>
		
			<rect x="50.232" y="141.336" transform="matrix(0.9511 0.3089 -0.3089 0.9511 47.6328 -9.7084)" fill="none" stroke="#000000" stroke-width="2.126" stroke-miterlimit="10" width="8.492" height="8.494"/>
	</g>
	<g>
		
			<rect x="31.945" y="130.399" transform="matrix(0.8091 0.5877 -0.5877 0.8091 86.0355 4.4352)" fill="#FFFFFF" width="8.492" height="8.494"/>
		
			<rect x="31.945" y="130.399" transform="matrix(0.8091 0.5877 -0.5877 0.8091 86.0355 4.4352)" fill="none" stroke="#000000" stroke-width="2.126" stroke-miterlimit="10" width="8.492" height="8.494"/>
	</g>
	<g>
		
			<rect x="17.933" y="114.346" transform="matrix(0.5879 0.8089 -0.8089 0.5879 105.0699 30.9277)" fill="#FFFFFF" width="8.492" height="8.495"/>
		
			<rect x="17.933" y="114.346" transform="matrix(0.5879 0.8089 -0.8089 0.5879 105.0699 30.9277)" fill="none" stroke="#000000" stroke-width="2.126" stroke-miterlimit="10" width="8.492" height="8.495"/>
	</g>
	<g>
		
			<rect x="9.566" y="94.749" transform="matrix(0.3092 0.951 -0.951 0.3092 103.6883 55.2542)" fill="#FFFFFF" width="8.492" height="8.494"/>
		
			<rect x="9.566" y="94.749" transform="matrix(0.3092 0.951 -0.951 0.3092 103.6883 55.2542)" fill="none" stroke="#000000" stroke-width="2.126" stroke-miterlimit="10" width="8.492" height="8.494"/>
	</g>
	<g>
		<rect x="7.665" y="73.526" fill="#FFFFFF" width="8.494" height="8.492"/>
		
			<rect x="7.665" y="73.526" fill="none" stroke="#000000" stroke-width="2.126" stroke-miterlimit="10" width="8.494" height="8.492"/>
	</g>
	<g>
		
			<rect x="12.416" y="52.754" transform="matrix(-0.3089 0.9511 -0.9511 -0.3089 76.0226 58.7584)" fill="#FFFFFF" width="8.492" height="8.494"/>
		
			<rect x="12.416" y="52.754" transform="matrix(-0.3089 0.9511 -0.9511 -0.3089 76.0226 58.7584)" fill="none" stroke="#000000" stroke-width="2.126" stroke-miterlimit="10" width="8.492" height="8.494"/>
	</g>
	<g>
		
			<rect x="23.353" y="34.466" transform="matrix(-0.5877 0.8091 -0.8091 -0.5877 75.1421 39.1336)" fill="#FFFFFF" width="8.492" height="8.494"/>
		
			<rect x="23.353" y="34.466" transform="matrix(-0.5877 0.8091 -0.8091 -0.5877 75.1421 39.1336)" fill="none" stroke="#000000" stroke-width="2.126" stroke-miterlimit="10" width="8.492" height="8.494"/>
	</g>
	<g>
		
			<rect x="39.406" y="20.454" transform="matrix(-0.8089 0.5879 -0.5879 -0.8089 93.4861 19.0207)" fill="#FFFFFF" width="8.493" height="8.494"/>
		
			<rect x="39.406" y="20.454" transform="matrix(-0.8089 0.5879 -0.5879 -0.8089 93.4861 19.0207)" fill="none" stroke="#000000" stroke-width="2.126" stroke-miterlimit="10" width="8.493" height="8.494"/>
	</g>
	<g>
		
			<rect x="59.003" y="12.088" transform="matrix(-0.951 0.3091 -0.3091 -0.951 128.4507 12.318)" fill="#FFFFFF" width="8.493" height="8.495"/>
		
			<rect x="59.003" y="12.088" transform="matrix(-0.951 0.3091 -0.3091 -0.951 128.4507 12.318)" fill="none" stroke="#000000" stroke-width="2.126" stroke-miterlimit="10" width="8.493" height="8.495"/>
	</g>
	<g>
		<rect x="80.226" y="10.187" fill="#FFFFFF" width="8.493" height="8.495"/>
		
			<rect x="80.226" y="10.187" fill="none" stroke="#000000" stroke-width="2.126" stroke-miterlimit="10" width="8.493" height="8.495"/>
	</g>
	<g>
		
			<rect x="100.998" y="14.938" transform="matrix(-0.9511 -0.3089 0.3089 -0.9511 199.4166 69.9408)" fill="#FFFFFF" width="8.493" height="8.495"/>
		
			<rect x="100.998" y="14.938" transform="matrix(-0.9511 -0.3089 0.3089 -0.9511 199.4166 69.9408)" fill="none" stroke="#000000" stroke-width="2.126" stroke-miterlimit="10" width="8.493" height="8.495"/>
	</g>
	<g>
		
			<rect x="119.285" y="25.875" transform="matrix(-0.8091 -0.5877 0.5877 -0.8091 205.7809 127.0886)" fill="#FFFFFF" width="8.493" height="8.495"/>
		
			<rect x="119.285" y="25.875" transform="matrix(-0.8091 -0.5877 0.5877 -0.8091 205.7809 127.0886)" fill="none" stroke="#000000" stroke-width="2.126" stroke-miterlimit="10" width="8.493" height="8.495"/>
	</g>
	<g>
		
			<rect x="133.298" y="41.927" transform="matrix(-0.5879 -0.8089 0.8089 -0.5879 181.0576 184.5843)" fill="#FFFFFF" width="8.493" height="8.495"/>
		
			<rect x="133.298" y="41.927" transform="matrix(-0.5879 -0.8089 0.8089 -0.5879 181.0576 184.5843)" fill="none" stroke="#000000" stroke-width="2.126" stroke-miterlimit="10" width="8.493" height="8.495"/>
	</g>
	<g>
		
			<rect x="141.664" y="61.524" transform="matrix(-0.3092 -0.951 0.951 -0.3092 128.4743 224.8689)" fill="#FFFFFF" width="8.493" height="8.496"/>
		
			<rect x="141.664" y="61.524" transform="matrix(-0.3092 -0.951 0.951 -0.3092 128.4743 224.8689)" fill="none" stroke="#000000" stroke-width="2.126" stroke-miterlimit="10" width="8.493" height="8.496"/>
	</g>
	<g>
		<rect x="143.564" y="82.749" fill="#FFFFFF" width="8.495" height="8.493"/>
		
			<rect x="143.564" y="82.749" fill="none" stroke="#000000" stroke-width="2.126" stroke-miterlimit="10" width="8.495" height="8.493"/>
	</g>
	<g>
		
			<rect x="138.814" y="103.52" transform="matrix(0.3088 -0.9511 0.9511 0.3088 -3.6211 210.5521)" fill="#FFFFFF" width="8.493" height="8.496"/>
		
			<rect x="138.814" y="103.52" transform="matrix(0.3088 -0.9511 0.9511 0.3088 -3.6211 210.5521)" fill="none" stroke="#000000" stroke-width="2.126" stroke-miterlimit="10" width="8.493" height="8.496"/>
	</g>
	<g>
		
			<rect x="127.877" y="121.807" transform="matrix(0.5877 -0.8091 0.8091 0.5877 -47.512 158.8799)" fill="#FFFFFF" width="8.493" height="8.495"/>
		
			<rect x="127.877" y="121.807" transform="matrix(0.5877 -0.8091 0.8091 0.5877 -47.512 158.8799)" fill="none" stroke="#000000" stroke-width="2.126" stroke-miterlimit="10" width="8.493" height="8.495"/>
	</g>
	<g>
		
			<rect x="111.824" y="135.82" transform="matrix(0.809 -0.5879 0.5879 0.809 -60.1664 94.9924)" fill="#FFFFFF" width="8.494" height="8.495"/>
		
			<rect x="111.824" y="135.82" transform="matrix(0.809 -0.5879 0.5879 0.809 -60.1664 94.9924)" fill="none" stroke="#000000" stroke-width="2.126" stroke-miterlimit="10" width="8.494" height="8.495"/>
	</g>
	<g>
		
			<rect x="92.227" y="144.187" transform="matrix(0.951 -0.309 0.309 0.951 -41.15 37.0808)" fill="#FFFFFF" width="8.494" height="8.494"/>
		
			<rect x="92.227" y="144.187" transform="matrix(0.951 -0.309 0.309 0.951 -41.15 37.0808)" fill="none" stroke="#000000" stroke-width="2.126" stroke-miterlimit="10" width="8.494" height="8.494"/>
	</g>
	<g>
		<rect x="71.003" y="146.088" fill="#FFFFFF" width="8.494" height="8.493"/>
		
			<rect x="71.003" y="146.088" fill="none" stroke="#000000" stroke-width="2.126" stroke-miterlimit="10" width="8.494" height="8.493"/>
	</g>
</g>
</svg>
