<?xml version="1.0" encoding="UTF-8" standalone="no"?>
<svg width="24px" height="32px" viewBox="0 0 24 32" version="1.1" xmlns="http://www.w3.org/2000/svg" xmlns:xlink="http://www.w3.org/1999/xlink" xmlns:sketch="http://www.bohemiancoding.com/sketch/ns">
    <!-- Generator: Sketch 3.3.2 (12043) - http://www.bohemiancoding.com/sketch -->
    <title>file_document_code_programming_html_xml</title>
    <desc>Created with Sketch.</desc>
    <defs></defs>
    <g id="Page-1" stroke="none" stroke-width="1" fill="none" fill-rule="evenodd" sketch:type="MSPage">
        <g id="noun_140499_cc" sketch:type="MSLayerGroup" transform="translate(-4.000000, 0.000000)" fill="#000000">
            <g id="file-folder" transform="translate(4.000000, 0.000000)" sketch:type="MSShapeGroup">
                <path d="M0,1 C0,0 0.99339768,0 0.99339768,0 L17,0 L24,7 L24,30.9993054 C24,32 22.9967004,32 22.9967004,32 L1.00329963,32 C0,32 0,31 0,31 L0,1 L0,1 Z M2,30 L22,29.9993054 L22,8 L17,8 C16,8 16,7 16,7 L16,2 L2,2 L2,30 L2,30 Z M8,14.7573593 L9.4142136,16.1715729 L6.5857864,19 L9.4142136,21.8284271 L8,23.2426407 L3.75735931,19 L8,14.7573593 L8,14.7573593 Z M16,14.7573593 L14.5857864,16.1715729 L17.4142136,19 L14.5857864,21.8284271 L16,23.2426407 L20.2426407,19 L16,14.7573593 L16,14.7573593 Z M11.8834331,13.9023131 L13.8530486,14.2496094 L12.1165669,24.0976869 L10.1469514,23.7503906 L11.8834331,13.9023131 L11.8834331,13.9023131 Z" id="file_document_code_programming_html_xml"></path>
            </g>
        </g>
    </g>
</svg>