<?xml version="1.0" encoding="UTF-8" standalone="no"?>
<svg width="32px" height="26px" viewBox="0 0 32 26" version="1.1" xmlns="http://www.w3.org/2000/svg" xmlns:xlink="http://www.w3.org/1999/xlink" xmlns:sketch="http://www.bohemiancoding.com/sketch/ns">
    <!-- Generator: Sketch 3.3.2 (12043) - http://www.bohemiancoding.com/sketch -->
    <title>folder_group_collection_editor_office_files</title>
    <desc>Created with Sketch.</desc>
    <defs></defs>
    <g id="Page-1" stroke="none" stroke-width="1" fill="none" fill-rule="evenodd" sketch:type="MSPage">
        <path d="M32,8 L32,25 C32,26 30.9993054,26 30.9993054,26 L1.00069463,26 C1.00069463,26 0,26 0,25 L0,8 L32,8 L32,8 Z M1.00069463,0 L9.5,0 C10.5574951,0 11,1 11,1 L12,3 L30.9993054,3 C30.9993054,3 32,3 32,4 L32,7 L0,7 L0,1 C-1.99840144e-15,0 1.00069463,0 1.00069463,0 L1.00069463,0 Z" id="folder_group_collection_editor_office_files" fill="#000000" sketch:type="MSShapeGroup"></path>
    </g>
</svg>