<?xml version="1.0" encoding="utf-8"?>
<!-- Generator: Adobe Illustrator 17.1.0, SVG Export Plug-In . SVG Version: 6.00 Build 0)  -->
<!DOCTYPE svg PUBLIC "-//W3C//DTD SVG 1.1//EN" "http://www.w3.org/Graphics/SVG/1.1/DTD/svg11.dtd">
<svg version="1.1" id="Layer_1" xmlns="http://www.w3.org/2000/svg" xmlns:xlink="http://www.w3.org/1999/xlink" x="0px" y="0px"
	 viewBox="0 0 131.5 136.1" enable-background="new 0 0 131.5 136.1" xml:space="preserve">
<g id="Layer_x0020_1">
	<path d="M73.6,132c-1.2,0.2-2.5,0.2-3.7,0.4c-1.4,0-2.9,0-4.5,0c-0.8,0-1.7,0-2.5,0c-0.8,0-1.4,0-2.3,0c0.2,0.2,0.4,0.4,0.4,0.6
		c0.2,0.2,0.6,0.6,0.8,0.8l0,0l0,0c0.8,0.6,1.4,1.2,2.5,1.7c0.8,0.4,1.7,0.6,2.7,0.6c1,0,1.9-0.2,2.7-0.6c1-0.4,1.9-1,2.5-1.7
		c0.4-0.4,0.6-0.6,1-1C73.4,132.6,73.4,132.2,73.6,132z"/>
	<path d="M38.5,130.9c0.4-1,0.6-1.9,0.6-2.9v-1.2c-1.9-0.6-3.7-1.7-5.4-2.5c-1.7-1-3.3-1.9-4.8-2.9c-0.4,0-0.8,0.2-1.2,0.4
		c-0.4,0.4-0.8,0.6-1.2,1c-0.6,0.6-1,1.4-1.4,2.5c-0.4,0.8-0.6,1.7-0.6,2.7c0,1,0.2,1.9,0.6,2.7c0.2,1,0.8,1.9,1.4,2.5
		c0.8,0.8,1.4,1.2,2.5,1.7c0.8,0.2,1.9,0.4,2.7,0.4c1,0,2.1-0.2,2.9-0.4c0.8-0.4,1.7-0.8,2.5-1.7C37.7,132.6,38.3,131.8,38.5,130.9z
		"/>
	<path d="M92.2,128c0,1,0.2,1.9,0.4,2.9c0.4,0.8,0.8,1.7,1.7,2.3c0.6,0.8,1.4,1.2,2.3,1.7c1,0.2,1.9,0.4,2.9,0.4
		c1,0,1.9-0.2,2.9-0.4c0.8-0.4,1.7-0.8,2.3-1.7c0.6-0.6,1.2-1.4,1.7-2.5c0.4-0.8,0.6-1.7,0.6-2.7c0-1-0.2-1.9-0.6-2.7
		c-0.4-1-1-1.9-1.7-2.5c-0.4-0.4-0.8-0.6-1.2-1c-0.4-0.2-0.8-0.4-1-0.4c-1.7,1-3.3,1.9-5,2.9c-1.7,0.8-3.5,1.9-5.2,2.5V128z"/>
	<path d="M71.5,5.8c-0.6-0.2-1.7-0.4-2.7-0.6C68,5,66.8,4.8,65.8,4.8c-1.2,0-2.3,0.2-3.3,0.4c-0.8,0.2-1.9,0.4-2.5,0.6
		c-0.8,0.4-1.2,0.8-1.7,1.2c-0.4,0.4-0.6,0.8-0.6,1c0,0.6,0.2,1,0.6,1.2c0.4,0.4,0.8,0.8,1.7,1l0,0c0.6,0.4,1.4,0.8,2.5,1
		s2.1,0.2,3.3,0.2c1,0,2.3,0,3.3-0.2c1-0.2,1.9-0.6,2.5-1l0,0c0.8-0.2,1.2-0.6,1.7-1l0,0c0.4-0.2,0.6-0.6,0.6-1.2
		c0-0.2-0.2-0.6-0.6-1S72.4,6.2,71.5,5.8L71.5,5.8z"/>
	<path d="M72,11.2c-1.7,0.8-3.7,1.2-6.2,1.2c-2.5,0-4.5-0.4-6.2-1.2c-1.7-0.6-2.7-1.9-2.7-3.1c0-1,1-2.3,2.7-2.9
		c1.7-0.8,3.7-1.2,6.2-1.2c2.5,0,4.5,0.4,6.2,1.2c1.7,0.6,2.7,1.9,2.7,2.9C74.6,9.3,73.6,10.5,72,11.2z M131.4,63.6
		c-0.6-17.1-7.8-32.8-19.2-44.2C100.5,7.4,83.9,0,65.8,0S31.1,7.4,19.3,19.4C8.3,30.4,1.1,45,0.1,61.5l1.4,4.8
		c1.7,5.2,5.2,9.7,10.1,13.4c5.4,4.1,12.6,7.4,20.7,9.9l0,0c4.3,1.2,8.9,2.1,13.4,2.9c4.8,0.8,9.7,1.2,14.7,1.4
		c5.2,0.2,10.3,0.2,15.5-0.2c4.5-0.4,9.3-0.8,13.8-1.9l0,0c10.3-1.9,19.6-5,27.1-9.7c6.6-4.1,11.6-9.5,13.8-15.9L131.4,63.6z"/>
	<path d="M0.1,71c1.2,16.1,8.5,30.6,19.2,41.3c11.8,12,28.3,19.2,46.5,19.2s34.7-7.2,46.5-19.2c10.7-10.7,17.8-25.2,19.2-41.1
		l-3.3,5c-2.7,3.1-6,6-9.9,8.5c-7.6,4.8-17.3,8.1-27.9,10.1l0,0c-4.8,0.8-9.5,1.4-14.5,1.9c-5.2,0.2-10.3,0.2-15.5,0
		S50.3,96,45.3,95.2c-4.8-0.6-9.5-1.7-13.6-2.9h-0.2c-8.3-2.5-15.7-6-21.5-10.3C6.1,79.1,3.2,74.8,0.1,71z"/>
</g>
</svg>
