<?xml version="1.0" encoding="UTF-8" standalone="no"?>
<svg width="90px" height="73px" viewBox="0 0 90 73" version="1.1" xmlns="http://www.w3.org/2000/svg" xmlns:xlink="http://www.w3.org/1999/xlink" xmlns:sketch="http://www.bohemiancoding.com/sketch/ns">
    <!-- Generator: Sketch 3.3.2 (12043) - http://www.bohemiancoding.com/sketch -->
    <title>Manager</title>
    <desc>Created with Sketch.</desc>
    <defs></defs>
    <g id="Page-1" stroke="none" stroke-width="1" fill="none" fill-rule="evenodd" sketch:type="MSPage">
        <g id="noun_35339_cc" sketch:type="MSLayerGroup" fill="#000000">
            <path d="M85.543,43.729 L77.52,43.729 L77.52,36.545 C77.52,35.373 76.569,34.422 75.396,34.422 L46.907,34.422 L46.907,29.36 L54.931,29.36 C57.219,29.36 59.079,27.5 59.079,25.212 L59.079,4.919 C59.079,2.631 57.219,0.77 54.931,0.77 L34.638,0.77 C32.35,0.77 30.49,2.631 30.49,4.919 L30.49,25.212 C30.49,27.5 32.35,29.36 34.638,29.36 L42.661,29.36 L42.661,34.421 L14.749,34.421 C13.576,34.421 12.625,35.372 12.625,36.544 L12.625,43.728 L4.603,43.728 C2.315,43.728 0.455,45.59 0.455,47.878 L0.455,68.171 C0.455,70.459 2.315,72.319 4.603,72.319 L24.897,72.319 C27.185,72.319 29.045,70.459 29.045,68.171 L29.045,47.879 C29.045,45.591 27.184,43.729 24.897,43.729 L16.873,43.729 L16.873,38.668 L42.662,38.668 L42.662,43.729 L34.639,43.729 C32.351,43.729 30.491,45.591 30.491,47.879 L30.491,68.172 C30.491,70.46 32.351,72.32 34.639,72.32 L54.933,72.32 C57.221,72.32 59.081,70.46 59.081,68.172 L59.081,47.879 C59.081,45.591 57.221,43.729 54.933,43.729 L46.909,43.729 L46.909,38.668 L73.273,38.668 L73.273,43.729 L65.25,43.729 C62.963,43.729 61.103,45.591 61.103,47.879 L61.103,68.172 C61.103,70.46 62.963,72.32 65.25,72.32 L85.545,72.32 C87.832,72.32 89.693,70.46 89.693,68.172 L89.693,47.879 C89.691,45.591 87.83,43.729 85.543,43.729 L85.543,43.729 Z M34.638,5.017 L54.834,4.919 L54.834,25.114 L34.736,25.212 L34.638,5.017 L34.638,5.017 Z M24.798,68.074 L4.701,68.172 L4.603,47.977 L24.799,47.879 L24.799,68.074 L24.798,68.074 Z M54.834,68.074 L34.736,68.172 L34.638,47.977 L54.834,47.879 L54.834,68.074 L54.834,68.074 Z M85.444,68.074 L65.346,68.172 L65.247,47.977 L85.443,47.879 L85.443,68.074 L85.444,68.074 Z" id="Manager" sketch:type="MSShapeGroup"></path>
        </g>
    </g>
</svg>