<?xml version="1.0" encoding="UTF-8" standalone="no"?>
<svg width="26px" height="32px" viewBox="0 0 26 32" version="1.1" xmlns="http://www.w3.org/2000/svg" xmlns:xlink="http://www.w3.org/1999/xlink" xmlns:sketch="http://www.bohemiancoding.com/sketch/ns">
    <!-- Generator: Sketch 3.3.2 (12043) - http://www.bohemiancoding.com/sketch -->
    <title>file_text_document_page_paper_new_add_plus</title>
    <desc>Created with Sketch.</desc>
    <defs></defs>
    <g id="Page-1" stroke="none" stroke-width="1" fill="none" fill-rule="evenodd" sketch:type="MSPage">
        <path d="M21,32 C23.7614237,32 26,29.7614237 26,27 C26,24.2385763 23.7614237,22 21,22 C18.2385763,22 16,24.2385763 16,27 C16,29.7614237 18.2385763,32 21,32 L21,32 Z M22,24 L20,24 L20,26 L18,26 L18,28 L20,28 L20,30 L22,30 L22,28 L24,28 L24,26 L22,26 L22,24 L22,24 Z M6,20 L16,20 L16,22 L6,22 L6,20 L6,20 Z M6,12 L18,12 L18,14 L6,14 L6,12 L6,12 Z M6,24 L12,24 L12,26 L6,26 L6,24 L6,24 Z M6,16 L14,16 L14,18 L6,18 L6,16 L6,16 Z M24,21.8026932 L24,7 L17,0 L0.99339768,0 C0.99339768,0 0,0 0,1 L0,31 C0,31 0,32 1.00329963,32 L17.6822049,32 C16.9119535,31.4878691 16.2668165,30.8025019 15.8024159,29.9995206 L2,30 L2,2 L16,2 L16,7 C16,7 16,8 17,8 L22,8 L22,21.0829584 C22.7179235,21.2034032 23.3926158,21.4513404 24,21.8026932 L24,21.8026932 L24,21.8026932 Z" id="file_text_document_page_paper_new_add_plus" fill="#000000" sketch:type="MSShapeGroup"></path>
    </g>
</svg>