<?xml version="1.0" encoding="utf-8"?>
<!-- Generator: Adobe Illustrator 17.1.0, SVG Export Plug-In . SVG Version: 6.00 Build 0)  -->
<!DOCTYPE svg PUBLIC "-//W3C//DTD SVG 1.1//EN" "http://www.w3.org/Graphics/SVG/1.1/DTD/svg11.dtd">
<svg version="1.1" id="Layer_1" xmlns="http://www.w3.org/2000/svg" xmlns:xlink="http://www.w3.org/1999/xlink" x="0px" y="0px"
	 viewBox="31 -24.5 66.8 59.2" enable-background="new 31 -24.5 66.8 59.2" xml:space="preserve">
<circle fill="none" stroke="#000000" stroke-width="10" stroke-miterlimit="10" cx="78.4" cy="-9.3" r="10.2"/>
<path stroke="#000000" stroke-miterlimit="10" d="M69-8.7c0,0.9-0.7,1.6-1.6,1.6H33.1c-0.9,0-1.6-0.7-1.6-1.6l0,0
	c0-0.9,0.7-1.6,1.6-1.6h34.3C68.3-10.3,69-9.6,69-8.7L69-8.7z"/>
<path stroke="#000000" stroke-miterlimit="10" d="M97.3-8.7c0,0.9-0.7,1.6-1.6,1.6h-6.4c-0.9,0-1.6-0.7-1.6-1.6l0,0
	c0-0.9,0.7-1.6,1.6-1.6h6.4C96.6-10.3,97.3-9.6,97.3-8.7L97.3-8.7z"/>
<circle fill="none" stroke="#000000" stroke-width="10" stroke-miterlimit="10" cx="50.4" cy="19.6" r="10.2"/>
<path stroke="#000000" stroke-miterlimit="10" d="M59.8,20.2c0,0.9,0.7,1.6,1.6,1.6h34.3c0.9,0,1.6-0.7,1.6-1.6l0,0
	c0-0.9-0.7-1.6-1.6-1.6H61.4C60.5,18.6,59.8,19.3,59.8,20.2L59.8,20.2z"/>
<path stroke="#000000" stroke-miterlimit="10" d="M31.5,20.2c0,0.9,0.7,1.6,1.6,1.6h6.4c0.9,0,1.6-0.7,1.6-1.6l0,0
	c0-0.9-0.7-1.6-1.6-1.6h-6.4C32.2,18.6,31.5,19.3,31.5,20.2L31.5,20.2z"/>
</svg>
