<?xml version="1.0" encoding="UTF-8" standalone="no"?>
<svg width="22px" height="15px" viewBox="0 0 22 15" version="1.1" xmlns="http://www.w3.org/2000/svg" xmlns:xlink="http://www.w3.org/1999/xlink" xmlns:sketch="http://www.bohemiancoding.com/sketch/ns">
    <!-- Generator: Sketch 3.3.2 (12043) - http://www.bohemiancoding.com/sketch -->
    <title>upload</title>
    <desc>Created with Sketch.</desc>
    <defs></defs>
    <g id="Page-1" stroke="none" stroke-width="1" fill="none" fill-rule="evenodd" sketch:type="MSPage">
        <path d="M10.5015626,8.1656993 L10.5015626,14 L11.5,14.0000002 L11.5,8.1672619 L13.1213203,9.7885822 L13.8284271,9.0814755 L11,6.2530483 L8.17157288,9.0814755 L8.87867966,9.7885822 L10.5015626,8.1656993 L10.5015626,8.1656993 Z M3.4375,14.0453761 C1.486375,13.7276051 0,12.0800023 0,10.0952686 C0,8.5204327 0.9356875,7.1578892 2.2969375,6.5036548 C2.146375,6.1731996 2.0625,5.80736234 2.0625,5.42216513 C2.0625,3.94746719 3.29381251,2.75182028 4.81250001,2.75182028 C5.6216875,2.75182028 6.34975,3.09162165 6.853,3.63169888 C7.9165625,1.52880233 10.143375,0.08147545 12.71875,0.08147545 C16.2889375,0.08147545 19.190875,2.86330719 19.248625,6.3173982 C20.851875,6.8668217 22,8.3508658 22,10.0952686 C22,12.0800023 20.513625,13.7276051 18.5625,14.0453761 L17.875,14.1007858 L14.0689655,14.1007858 L14.0689655,13.1078275 L17.8266979,13.1078275 L18.4315433,13.1078276 C19.749096,12.897538 21.057377,11.2982258 21.057377,10.0208626 C21.057377,8.9186324 20.325555,7.9309871 19.2360141,7.5644451 L18.2690678,7.3055057 L18.2690675,6.3677404 C18.2246939,3.72121582 15.4837751,1.07443371 12.7066744,1.07443371 C10.7385375,1.07443371 8.9925785,2.1352739 7.957129,3.67863987 L7.042871,4.89802969 L5.96748065,4.150791 C5.70533545,3.87344303 5.2471417,3.67863994 4.85597191,3.67863998 C3.71659613,3.6786401 2.99063233,4.74539183 2.99063233,5.46350173 C2.99063233,5.64774931 3.02954449,5.82483531 3.10668617,5.99085349 L3.4375,6.8552767 C1.79384768,7.4225182 0.942622955,9.0228006 0.942622955,10.0208626 C0.942622955,11.2982258 2.39904333,12.861079 3.71659601,13.0713686 L4.17330211,13.1078275 L7.957129,13.1078272 L7.957129,14.1007854 L4.12500001,14.1007858 L3.4375,14.0453761 L3.4375,14.0453761 Z" id="upload" fill="#000000" sketch:type="MSShapeGroup"></path>
    </g>
</svg>