<?xml version="1.0" encoding="UTF-8" standalone="no"?>
<svg width="22px" height="12px" viewBox="0 0 22 12" version="1.1" xmlns="http://www.w3.org/2000/svg" xmlns:xlink="http://www.w3.org/1999/xlink" xmlns:sketch="http://www.bohemiancoding.com/sketch/ns">
    <!-- Generator: Sketch 3.3.2 (12043) - http://www.bohemiancoding.com/sketch -->
    <title>view</title>
    <desc>Created with Sketch.</desc>
    <defs></defs>
    <g id="Page-1" stroke="none" stroke-width="1" fill="none" fill-rule="evenodd" sketch:type="MSPage">
        <g id="noun_56059_cc" sketch:type="MSLayerGroup" fill="#000000">
            <g id="iOS7" sketch:type="MSShapeGroup">
                <path d="M22,6 C22,6 17.0751322,0 11,0 C4.92486775,0 0,6 0,6 C0,6 4.92486775,12 11,12 C17.0751322,12 22,6 22,6 L22,6 L22,6 Z M3.82363248,8.2013585 C2.99387606,7.5761051 2.23879905,6.9046677 1.57524022,6.2341116 C1.34404036,6.0004737 1.34666123,6.0007516 1.34666123,6.0007516 C1.34666123,6.0007516 1.49563375,5.8463343 1.57524022,5.7658884 C2.23879905,5.0953323 2.99387606,4.42389486 3.82363248,3.7986415 C6.1539471,2.04265986 8.59334821,1 11,1 C13.4066518,1 15.8460529,2.04265986 18.1763675,3.7986415 C19.0061239,4.42389486 19.761201,5.0953323 20.4247598,5.7658884 C20.6559596,5.9995263 20.6741699,5.9774375 20.6741699,5.9774375 C20.6741699,5.9774375 20.511999,6.1459524 20.4247598,6.2341116 C19.761201,6.9046677 19.0061239,7.5761051 18.1763675,8.2013585 C15.8460529,9.9573401 13.4066518,11 11,11 C8.59334821,11 6.1539471,9.9573401 3.82363248,8.2013585 L3.82363248,8.2013585 L3.82363248,8.2013585 Z M11,10 C13.209139,10 15,8.209139 15,6 C15,3.790861 13.209139,2 11,2 C8.790861,2 7,3.790861 7,6 C7,8.209139 8.790861,10 11,10 L11,10 L11,10 Z M11,9 C12.6568542,9 14,7.6568543 14,6 C14,4.34314575 12.6568542,3 11,3 C9.34314575,3 8,4.34314575 8,6 C8,7.6568543 9.34314575,9 11,9 L11,9 L11,9 Z M11,7 C11.5522847,7 12,6.5522848 12,6 C12,5.4477152 11.5522847,5 11,5 C10.4477153,5 10,5.4477152 10,6 C10,6.5522848 10.4477153,7 11,7 L11,7 L11,7 Z" id="view"></path>
            </g>
        </g>
    </g>
</svg>