<?xml version="1.0" encoding="utf-8"?>
<!-- Generator: Adobe Illustrator 17.1.0, SVG Export Plug-In . SVG Version: 6.00 Build 0)  -->
<!DOCTYPE svg PUBLIC "-//W3C//DTD SVG 1.1//EN" "http://www.w3.org/Graphics/SVG/1.1/DTD/svg11.dtd">
<svg version="1.1" id="Layer_1" xmlns="http://www.w3.org/2000/svg" xmlns:xlink="http://www.w3.org/1999/xlink" x="0px" y="0px"
	 viewBox="4.7 1.9 91.5 95.4" enable-background="new 4.7 1.9 91.5 95.4" xml:space="preserve">
<g>
	<path d="M81.7,70.3c1.4-1.6,3.8-1.8,5.3-0.4c1.6,1.4,1.8,3.8,0.4,5.3l-9,10.5c-1.4,1.6-3.8,1.8-5.3,0.4c-1.6-1.4-1.8-3.8-0.4-5.3
		L81.7,70.3z M80.9,59.4L60.5,83l14.2,14.4l21.4-24.8L80.9,59.4z"/>
</g>
<rect x="32.4" y="17.4" transform="matrix(0.7563 0.6542 -0.6542 0.7563 46.5787 -11.8589)" width="13.6" height="78.5"/>
<polygon points="48,7.5 83.9,38.6 95.9,24.8 69.5,1.9 "/>
<polygon points="13.9,26.3 13.2,32 18.9,30.9 18.2,36.6 23.8,35.5 23.1,41.2 28.7,40.1 28,45.9 33.7,44.8 33.3,47.5 47.1,31.5 
	19.3,7.4 4.7,24.2 8,27.4 "/>
<polygon points="62.9,45.1 48,62.3 47.8,64.4 53.4,63.3 52.5,70.7 60.5,78.7 78.1,58.3 "/>
</svg>
