<?xml version="1.0" encoding="UTF-8" standalone="no"?>
<svg width="24px" height="32px" viewBox="0 0 24 32" version="1.1" xmlns="http://www.w3.org/2000/svg" xmlns:xlink="http://www.w3.org/1999/xlink" xmlns:sketch="http://www.bohemiancoding.com/sketch/ns">
    <!-- Generator: Sketch 3.3.2 (12043) - http://www.bohemiancoding.com/sketch -->
    <title>file_text_document_page_paper_doc_docx</title>
    <desc>Created with Sketch.</desc>
    <defs></defs>
    <g id="Page-1" stroke="none" stroke-width="1" fill="none" fill-rule="evenodd" sketch:type="MSPage">
        <g id="noun_140516_cc" sketch:type="MSLayerGroup" fill="#000000">
            <g id="file-folder" sketch:type="MSShapeGroup">
                <path d="M0,1 C0,0 0.99339768,0 0.99339768,0 L17,0 L24,7 L24,30.9993054 C24,32 22.9967004,32 22.9967004,32 L1.00329963,32 C0,32 0,31 0,31 L0,1 L0,1 Z M2,30 L22,29.9993054 L22,8 L17,8 C16,8 16,7 16,7 L16,2 L2,2 L2,30 L2,30 Z M6,16 L14,16 L14,18 L6,18 L6,16 L6,16 Z M6,24 L12,24 L12,26 L6,26 L6,24 L6,24 Z M6,12 L18,12 L18,14 L6,14 L6,12 L6,12 Z M6,20 L16,20 L16,22 L6,22 L6,20 L6,20 Z" id="file_text_document_page_paper_doc_docx"></path>
            </g>
        </g>
    </g>
</svg>