<?xml version="1.0" encoding="UTF-8" standalone="no"?>
<svg width="24px" height="32px" viewBox="0 0 24 32" version="1.1" xmlns="http://www.w3.org/2000/svg" xmlns:xlink="http://www.w3.org/1999/xlink" xmlns:sketch="http://www.bohemiancoding.com/sketch/ns">
    <!-- Generator: Sketch 3.3.2 (12043) - http://www.bohemiancoding.com/sketch -->
    <title>file_document_diamond_sketch</title>
    <desc>Created with Sketch.</desc>
    <defs></defs>
    <g id="Page-1" stroke="none" stroke-width="1" fill="none" fill-rule="evenodd" sketch:type="MSPage">
        <g id="noun_140495_cc" sketch:type="MSLayerGroup" transform="translate(-4.000000, 0.000000)" fill="#000000">
            <g id="file-folder" transform="translate(4.000000, 0.000000)" sketch:type="MSShapeGroup">
                <path d="M12.0029916,15 L11.9970084,15 L11.9994487,16.072876 L10.6287041,18 L12,18 L12,19 L10.8024517,19 L12,23.2529321 L13.1975483,19 L12,19 L12,18 L13.3712959,18 L12.0005513,16.072876 L12.0029916,15 L12.0029916,15 Z M12.46459,15 L15,15 L15.002652,15.002652 L13.9302501,17.0605652 L12.46459,15 L12.46459,15 Z M15.7439741,15.7439741 L18,18 L14.5683333,18 L15.7439741,15.7439741 L15.7439741,15.7439741 Z M17.1428571,19 L12.8145277,24.0497177 L14.2364363,19 L17.1428571,19 L17.1428571,19 Z M8.2560259,15.7439741 L6,18 L9.4316667,18 L8.2560259,15.7439741 L8.2560259,15.7439741 Z M8.997348,15.002652 L9,15 L11.53541,15 L10.0697499,17.0605652 L8.997348,15.002652 L8.997348,15.002652 Z M11.1854723,24.0497177 L6.8571429,19 L9.7635637,19 L11.1854723,24.0497177 L11.1854723,24.0497177 Z M0,1 C0,0 0.99339768,0 0.99339768,0 L17,0 L24,7 L24,30.9993054 C24,32 22.9967004,32 22.9967004,32 L1.00329963,32 C0,32 0,31 0,31 L0,1 L0,1 Z M2,30 L22,29.9993054 L22,8 L17,8 C16,8 16,7 16,7 L16,2 L2,2 L2,30 L2,30 Z" id="file_document_diamond_sketch"></path>
            </g>
        </g>
    </g>
</svg>