<?xml version="1.0" encoding="UTF-8" standalone="no"?>
<svg width="64px" height="76px" viewBox="0 0 64 76" version="1.1" xmlns="http://www.w3.org/2000/svg" xmlns:xlink="http://www.w3.org/1999/xlink" xmlns:sketch="http://www.bohemiancoding.com/sketch/ns">
    <!-- Generator: Sketch 3.3.1 (12005) - http://www.bohemiancoding.com/sketch -->
    <title>noun_67119_cc</title>
    <desc>Created with Sketch.</desc>
    <defs></defs>
    <g id="Page-1" stroke="none" stroke-width="1" fill="none" fill-rule="evenodd" sketch:type="MSPage">
        <g id="noun_67119_cc" sketch:type="MSLayerGroup" fill="#000000">
            <path d="M51.7,60.1 L40.1,60.1 L40.1,70.7 L40,70.8 L5.4,70.8 L5.4,5.2 L51.7,5.2 L51.7,21.3 L56.7,21.3 L56.7,2.7 C56.7,1.3 55.6,0.2 54.2,0.2 L2.9,0.2 C1.5,0.2 0.4,1.3 0.4,2.7 L0.4,73.3 C0.4,74.7 1.5,75.8 2.9,75.8 L40.9,75.8 C41.5,75.8 42.1,75.6 42.6,75.2 L55.8,63.4 C56.3,62.9 56.6,62.3 56.6,61.6 L56.6,45.9 L51.6,45.9 L51.7,60.1 L51.7,60.1 Z" id="Shape" sketch:type="MSShapeGroup"></path>
            <path d="M22.5,23.7 L22.5,43.6 L63.6,43.6 L63.6,23.7 L22.5,23.7 L22.5,23.7 Z M29.9,40.1 C28.4,40.1 27,39.7 26.3,39.3 L26.8,37 C27.6,37.4 28.8,37.8 30,37.8 C31.3,37.8 32,37.2 32,36.4 C32,35.6 31.4,35.1 29.9,34.6 C27.8,33.8 26.4,32.7 26.4,30.8 C26.4,28.6 28.2,27 31.2,27 C32.7,27 33.7,27.3 34.5,27.6 L33.9,29.9 C33.4,29.7 32.5,29.3 31.2,29.3 C29.9,29.3 29.3,29.9 29.3,30.5 C29.3,31.3 30,31.7 31.7,32.3 C34,33.1 35,34.3 35,36.1 C35,38.2 33.4,40.1 29.9,40.1 L29.9,40.1 Z M43.5,39.9 L40,39.9 L35.9,27.1 L39.1,27.1 L40.7,32.5 C41.1,34 41.5,35.5 41.8,37.1 L41.9,37.1 C42.2,35.6 42.6,34 43.1,32.6 L44.7,27.1 L47.8,27.1 L43.5,39.9 L43.5,39.9 Z M55.3,40.1 C53,40.1 51.3,39.5 50.1,38.4 C48.9,37.3 48.3,35.6 48.3,33.7 C48.3,29.4 51.4,27 55.6,27 C57.3,27 58.5,27.3 59.2,27.6 L58.6,30 C57.9,29.7 57,29.4 55.6,29.4 C53.2,29.4 51.3,30.7 51.3,33.5 C51.3,36.2 53,37.7 55.3,37.7 C55.9,37.7 56.5,37.6 56.7,37.5 L56.7,34.8 L54.7,34.8 L54.7,32.5 L59.5,32.5 L59.5,39.4 L59.6,39.4 C58.7,39.7 57,40.1 55.3,40.1 L55.3,40.1 Z" id="Shape" sketch:type="MSShapeGroup"></path>
        </g>
    </g>
</svg>